<?xml version="1.0" standalone="no"?>
<!DOCTYPE svg PUBLIC "-//W3C//DTD SVG 20010904//EN"
 "http://www.w3.org/TR/2001/REC-SVG-20010904/DTD/svg10.dtd">
<svg version="1.0" xmlns="http://www.w3.org/2000/svg"
 width="700.000000pt" height="700.000000pt" viewBox="0 0 700.000000 700.000000"
 preserveAspectRatio="xMidYMid meet">
<metadata>
Created by potrace 1.14, written by Peter Selinger 2001-2017
</metadata>
<g transform="translate(0.000000,700.000000) scale(0.100000,-0.100000)"
fill="#000000" stroke="none">
<path d="M290 6125 l0 -291 278 0 c152 1 284 0 293 -2 15 -3 49 -69 167 -322
50 -106 86 -183 206 -433 36 -76 66 -140 66 -142 0 -1 41 -88 91 -191 50 -104
105 -218 121 -254 75 -160 119 -252 165 -350 28 -58 66 -139 86 -180 19 -41
62 -133 96 -203 34 -71 61 -131 61 -135 0 -4 -28 -59 -63 -122 -185 -337 -190
-345 -258 -468 -116 -207 -142 -287 -138 -421 7 -225 131 -416 334 -512 125
-59 24 -56 1963 -56 l1782 0 0 66 c1 95 1 418 1 471 l-1 45 -1682 0 c-926 -1
-1692 2 -1703 5 -89 24 -83 52 60 310 65 118 125 227 133 242 l13 28 1120 0
c1234 0 1183 -3 1318 63 45 21 90 56 142 107 77 76 83 86 287 460 13 25 32 59
42 75 17 30 53 95 118 215 19 36 38 70 42 75 4 6 29 51 55 100 26 50 78 144
115 210 37 66 84 152 105 190 21 39 59 108 85 155 44 78 118 213 193 350 16
30 40 73 53 95 45 80 73 143 82 181 32 144 -66 299 -214 336 -40 10 -497 13
-2216 12 l-2167 -1 -112 236 c-61 130 -123 261 -138 291 l-27 55 -477 1 -477
0 0 -291z"/>
<path d="M1930 1739 c-223 -44 -401 -219 -456 -450 -13 -53 -11 -193 2 -252
59 -252 281 -439 534 -451 216 -10 419 97 529 279 119 196 112 438 -17 630
-125 187 -370 287 -592 244z"/>
<path d="M4844 1740 c-195 -39 -374 -198 -436 -389 -30 -93 -34 -254 -9 -338
32 -107 72 -173 151 -254 120 -122 260 -178 431 -173 190 6 366 107 468 268
134 213 117 496 -41 682 -81 95 -156 145 -283 189 -56 19 -215 28 -281 15z"/>
</g>
</svg>
